<?xml version="1.0" encoding="UTF-8" standalone="no"?>
<!-- Created with Inkscape (http://www.inkscape.org/) -->

<svg
   xmlns:dc="http://purl.org/dc/elements/1.1/"
   xmlns:cc="http://creativecommons.org/ns#"
   xmlns:rdf="http://www.w3.org/1999/02/22-rdf-syntax-ns#"
   xmlns:svg="http://www.w3.org/2000/svg"
   xmlns="http://www.w3.org/2000/svg"
   xmlns:sodipodi="http://sodipodi.sourceforge.net/DTD/sodipodi-0.dtd"
   xmlns:inkscape="http://www.inkscape.org/namespaces/inkscape"
   id="svg2"
   version="1.1"
   inkscape:version="0.91 r13725"
   xml:space="preserve"
   width="274.47125"
   height="274.47125"
   viewBox="0 0 274.47125 274.47125"
   sodipodi:docname="echelon_logo_symbol_only.svg"><metadata
     id="metadata8"><rdf:RDF><cc:Work
         rdf:about=""><dc:format>image/svg+xml</dc:format><dc:type
           rdf:resource="http://purl.org/dc/dcmitype/StillImage" /><dc:title></dc:title></cc:Work></rdf:RDF></metadata><defs
     id="defs6" /><sodipodi:namedview
     pagecolor="#ffffff"
     bordercolor="#666666"
     borderopacity="1"
     objecttolerance="10"
     gridtolerance="10"
     guidetolerance="10"
     inkscape:pageopacity="0"
     inkscape:pageshadow="2"
     inkscape:window-width="1280"
     inkscape:window-height="995"
     id="namedview4"
     showgrid="false"
     inkscape:zoom="1.7196701"
     inkscape:cx="87.40552"
     inkscape:cy="112.23083"
     inkscape:window-x="1920"
     inkscape:window-y="0"
     inkscape:window-maximized="1"
     inkscape:current-layer="g10" /><g
     id="g10"
     inkscape:groupmode="layer"
     inkscape:label="echelon_logo_symbol_only"
     transform="matrix(1.25,0,0,-1.25,0,274.47125)"><g
       id="g12"
       transform="translate(109.788,109.788)"><g
         id="g14"><g
           id="g16"><g
             id="g18"><path
               d="M 109.59045,0 C 109.59045,60.52591 60.52591,109.59045 0,109.59045 -60.52591,109.59045 -109.59045,60.52591 -109.59045,0 c 0,-60.52591 49.06454,-109.59045 109.59045,-109.59045 60.52591,0 109.59045,49.06454 109.59045,109.59045 z"
               style="fill:#0089ff;fill-opacity:1;fill-rule:nonzero;stroke:#0089ff;stroke-width:0.3985;stroke-linecap:butt;stroke-linejoin:miter;stroke-miterlimit:10;stroke-dasharray:none;stroke-opacity:1"
               id="path20"
               inkscape:connector-curvature="0" /></g><g
             id="g22"><path
               d="M 94.6463,0 C 94.6463,52.27237 52.27237,94.6463 0,94.6463 -52.27237,94.6463 -94.6463,52.27237 -94.6463,0 c 0,-52.27237 42.37393,-94.6463 94.6463,-94.6463 52.27237,0 94.6463,42.37393 94.6463,94.6463 z"
               style="fill:none;stroke:#ffffff;stroke-width:9.96277046;stroke-linecap:butt;stroke-linejoin:miter;stroke-miterlimit:10;stroke-dasharray:none;stroke-opacity:1"
               id="path24"
               inkscape:connector-curvature="0" /></g><g
             id="g26"><path
               d="m 9.96277,94.6463 c 0,5.50235 -4.46042,9.96277 -9.96277,9.96277 -5.50235,0 -9.96277,-4.46042 -9.96277,-9.96277 0,-5.50236 4.46042,-9.96277 9.96277,-9.96277 5.50235,0 9.96277,4.46041 9.96277,9.96277 z"
               style="fill:#0089ff;fill-opacity:1;fill-rule:nonzero;stroke:#ffffff;stroke-width:4.98137999;stroke-linecap:butt;stroke-linejoin:miter;stroke-miterlimit:10;stroke-dasharray:none;stroke-opacity:1"
               id="path28"
               inkscape:connector-curvature="0" /></g><g
             id="g30"><path
               d="m -88.84286,34.11961 c -5.31487,1.42411 -10.77776,-1.72987 -12.20186,-7.04474 -1.42412,-5.31487 1.72987,-10.77777 7.04474,-12.20187 5.31488,-1.4241 10.77777,1.72987 12.20187,7.04476 1.4241,5.31486 -1.72989,10.77775 -7.04475,12.20185 z"
               style="fill:#0089ff;fill-opacity:1;fill-rule:nonzero;stroke:#ffffff;stroke-width:4.98137999;stroke-linecap:butt;stroke-linejoin:miter;stroke-miterlimit:10;stroke-dasharray:none;stroke-opacity:1"
               id="path32"
               inkscape:connector-curvature="0" /></g><g
             id="g34"><path
               d="m 93.99998,14.873 c 5.31487,1.4241 8.46886,6.887 7.04474,12.20187 -1.4241,5.31487 -6.88699,8.46885 -12.20186,7.04474 C 83.528,32.69551 80.37401,27.23262 81.79811,21.91776 83.22221,16.60287 88.6851,13.4489 93.99998,14.873 Z"
               style="fill:#0089ff;fill-opacity:1;fill-rule:nonzero;stroke:#ffffff;stroke-width:4.98137999;stroke-linecap:butt;stroke-linejoin:miter;stroke-miterlimit:10;stroke-dasharray:none;stroke-opacity:1"
               id="path36"
               inkscape:connector-curvature="0" /></g><g
             id="g38"><path
               d="m -73.96985,-59.88036 c -3.89076,-3.89074 -3.89076,-10.19874 0,-14.08949 3.89075,-3.89076 10.19875,-3.89076 14.08949,0 3.89075,3.89075 3.89075,10.19875 0,14.08949 -3.89074,3.89075 -10.19874,3.89075 -14.08949,0 z"
               style="fill:#0089ff;fill-opacity:1;fill-rule:nonzero;stroke:#ffffff;stroke-width:4.98137999;stroke-linecap:butt;stroke-linejoin:miter;stroke-miterlimit:10;stroke-dasharray:none;stroke-opacity:1"
               id="path40"
               inkscape:connector-curvature="0" /></g><g
             id="g42"><path
               d="m 59.88036,-73.96985 c 3.89074,-3.89076 10.19874,-3.89076 14.08949,0 3.89076,3.89075 3.89076,10.19875 0,14.08949 -3.89075,3.89075 -10.19875,3.89075 -14.08949,0 -3.89075,-3.89074 -3.89075,-10.19874 0,-14.08949 z"
               style="fill:#0089ff;fill-opacity:1;fill-rule:nonzero;stroke:#ffffff;stroke-width:4.98137999;stroke-linecap:butt;stroke-linejoin:miter;stroke-miterlimit:10;stroke-dasharray:none;stroke-opacity:1"
               id="path44"
               inkscape:connector-curvature="0" /></g><g
             id="g46"><path
               d="M 79.70215,0 C 79.70215,44.01884 44.01884,79.70215 0,79.70215 -44.01884,79.70215 -79.70215,44.01884 -79.70215,0 c 0,-44.01884 35.68331,-79.70215 79.70215,-79.70215 44.01884,0 79.70215,35.68331 79.70215,79.70215 z"
               style="fill:#ffffff;fill-opacity:1;fill-rule:nonzero;stroke:#ffffff;stroke-width:0.3985;stroke-linecap:butt;stroke-linejoin:miter;stroke-miterlimit:10;stroke-dasharray:none;stroke-opacity:1"
               id="path48"
               inkscape:connector-curvature="0" /></g></g></g></g><rect
       style="opacity:1;fill:none;fill-opacity:1;stroke:#902700;stroke-width:2.37543607;stroke-linejoin:round;stroke-miterlimit:4;stroke-dasharray:none;stroke-dashoffset:0;stroke-opacity:1"
       id="rect4195"
       width="34.784569"
       height="23.587297"
       x="100.42442"
       y="-164.62984"
       transform="scale(1,-1)"
       ry="3.3026392" /><rect
       style="opacity:1;fill:none;fill-opacity:1;stroke:#902700;stroke-width:2.37543607;stroke-linejoin:round;stroke-miterlimit:4;stroke-dasharray:none;stroke-dashoffset:0;stroke-opacity:1"
       id="rect4195-0"
       width="34.784569"
       height="23.587297"
       x="68.557854"
       y="-131.35147"
       ry="3.3026395"
       transform="scale(1,-1)" /><rect
       style="opacity:1;fill:none;fill-opacity:1;stroke:#902700;stroke-width:2.37543607;stroke-linejoin:round;stroke-miterlimit:4;stroke-dasharray:none;stroke-dashoffset:0;stroke-opacity:1"
       id="rect4195-0-6"
       width="34.784569"
       height="23.587297"
       x="48.554012"
       y="-94.600227"
       ry="3.3026395"
       transform="scale(1,-1)" /><rect
       style="opacity:1;fill:none;fill-opacity:1;stroke:#902700;stroke-width:2.37543607;stroke-linejoin:round;stroke-miterlimit:4;stroke-dasharray:none;stroke-dashoffset:0;stroke-opacity:1"
       id="rect4195-0-6-1"
       width="34.784569"
       height="23.587297"
       x="89.957298"
       y="-94.13501"
       ry="3.3026395"
       transform="scale(1,-1)" /><rect
       style="opacity:1;fill:none;fill-opacity:1;stroke:#902700;stroke-width:2.37543607;stroke-linejoin:round;stroke-miterlimit:4;stroke-dasharray:none;stroke-dashoffset:0;stroke-opacity:1"
       id="rect4195-0-6-0"
       width="34.784569"
       height="23.587297"
       x="138.80391"
       y="-130.42105"
       ry="3.3026395"
       transform="scale(1,-1)" /><path
       style="fill:none;fill-rule:evenodd;stroke:#000000;stroke-width:1.60000002;stroke-linecap:round;stroke-linejoin:miter;stroke-miterlimit:4;stroke-dasharray:none;stroke-opacity:1"
       d="M 85.950142,106.53206 65.946306,95.832336"
       id="path4308"
       inkscape:connector-curvature="0" /><path
       style="fill:none;fill-rule:evenodd;stroke:#000000;stroke-width:1.60000002;stroke-linecap:round;stroke-linejoin:miter;stroke-miterlimit:4;stroke-dasharray:none;stroke-opacity:1"
       d="M 87.113156,106.76466 106.18658,94.669323"
       id="path4308-2"
       inkscape:connector-curvature="0"
       sodipodi:nodetypes="cc" /><path
       style="fill:none;fill-rule:evenodd;stroke:#000000;stroke-width:1.60000002;stroke-linecap:round;stroke-linejoin:miter;stroke-miterlimit:4;stroke-dasharray:none;stroke-opacity:1"
       d="M 118.74713,140.25946 86.182745,131.88577"
       id="path4308-7"
       inkscape:connector-curvature="0"
       sodipodi:nodetypes="cc" /><path
       style="fill:none;fill-rule:evenodd;stroke:#000000;stroke-width:1.60000002;stroke-linecap:round;stroke-linejoin:miter;stroke-miterlimit:4;stroke-dasharray:none;stroke-opacity:1"
       d="m 118.51453,140.95726 39.07726,-10.69972"
       id="path4308-7-7"
       inkscape:connector-curvature="0"
       sodipodi:nodetypes="cc" /></g></svg>