<?xml version="1.0" encoding="UTF-8" standalone="no"?>
<svg
   xmlns:dc="http://purl.org/dc/elements/1.1/"
   xmlns:cc="http://creativecommons.org/ns#"
   xmlns:rdf="http://www.w3.org/1999/02/22-rdf-syntax-ns#"
   xmlns:svg="http://www.w3.org/2000/svg"
   xmlns="http://www.w3.org/2000/svg"
   viewBox="0 0 274.47125 274.47125"
   height="274.47125"
   width="274.47125"
   xml:space="preserve"
   version="1.1"
   id="svg2"><metadata
     id="metadata8"><rdf:RDF><cc:Work
         rdf:about=""><dc:format>image/svg+xml</dc:format><dc:type
           rdf:resource="http://purl.org/dc/dcmitype/StillImage" /><dc:title></dc:title></cc:Work></rdf:RDF></metadata><defs
     id="defs6" /><g
     transform="matrix(1.25,0,0,-1.25,0,274.47125)"
     id="g10"><g
       transform="translate(109.788,109.788)"
       id="g12"><g
         id="g14"><g
           id="g16"><g
             id="g18"><path
               id="path20"
               style="fill:#0089ff;fill-opacity:1;fill-rule:nonzero;stroke:#0089ff;stroke-width:0.3985;stroke-linecap:butt;stroke-linejoin:miter;stroke-miterlimit:10;stroke-dasharray:none;stroke-opacity:1"
               d="M 109.59045,0 C 109.59045,60.52591 60.52591,109.59045 0,109.59045 -60.52591,109.59045 -109.59045,60.52591 -109.59045,0 c 0,-60.52591 49.06454,-109.59045 109.59045,-109.59045 60.52591,0 109.59045,49.06454 109.59045,109.59045 z" /></g><g
             id="g22"><path
               id="path24"
               style="fill:none;stroke:#ffffff;stroke-width:9.96277046;stroke-linecap:butt;stroke-linejoin:miter;stroke-miterlimit:10;stroke-dasharray:none;stroke-opacity:1"
               d="M 94.6463,0 C 94.6463,52.27237 52.27237,94.6463 0,94.6463 -52.27237,94.6463 -94.6463,52.27237 -94.6463,0 c 0,-52.27237 42.37393,-94.6463 94.6463,-94.6463 52.27237,0 94.6463,42.37393 94.6463,94.6463 z" /></g><g
             id="g26"><path
               id="path28"
               style="fill:#0089ff;fill-opacity:1;fill-rule:nonzero;stroke:#ffffff;stroke-width:4.98137999;stroke-linecap:butt;stroke-linejoin:miter;stroke-miterlimit:10;stroke-dasharray:none;stroke-opacity:1"
               d="m 9.96277,94.6463 c 0,5.50235 -4.46042,9.96277 -9.96277,9.96277 -5.50235,0 -9.96277,-4.46042 -9.96277,-9.96277 0,-5.50236 4.46042,-9.96277 9.96277,-9.96277 5.50235,0 9.96277,4.46041 9.96277,9.96277 z" /></g><g
             id="g30"><path
               id="path32"
               style="fill:#0089ff;fill-opacity:1;fill-rule:nonzero;stroke:#ffffff;stroke-width:4.98137999;stroke-linecap:butt;stroke-linejoin:miter;stroke-miterlimit:10;stroke-dasharray:none;stroke-opacity:1"
               d="m -88.84286,34.11961 c -5.31487,1.42411 -10.77776,-1.72987 -12.20186,-7.04474 -1.42412,-5.31487 1.72987,-10.77777 7.04474,-12.20187 5.31488,-1.4241 10.77777,1.72987 12.20187,7.04476 1.4241,5.31486 -1.72989,10.77775 -7.04475,12.20185 z" /></g><g
             id="g34"><path
               id="path36"
               style="fill:#0089ff;fill-opacity:1;fill-rule:nonzero;stroke:#ffffff;stroke-width:4.98137999;stroke-linecap:butt;stroke-linejoin:miter;stroke-miterlimit:10;stroke-dasharray:none;stroke-opacity:1"
               d="m 93.99998,14.873 c 5.31487,1.4241 8.46886,6.887 7.04474,12.20187 -1.4241,5.31487 -6.88699,8.46885 -12.20186,7.04474 C 83.528,32.69551 80.37401,27.23262 81.79811,21.91776 83.22221,16.60287 88.6851,13.4489 93.99998,14.873 Z" /></g><g
             id="g38"><path
               id="path40"
               style="fill:#0089ff;fill-opacity:1;fill-rule:nonzero;stroke:#ffffff;stroke-width:4.98137999;stroke-linecap:butt;stroke-linejoin:miter;stroke-miterlimit:10;stroke-dasharray:none;stroke-opacity:1"
               d="m -73.96985,-59.88036 c -3.89076,-3.89074 -3.89076,-10.19874 0,-14.08949 3.89075,-3.89076 10.19875,-3.89076 14.08949,0 3.89075,3.89075 3.89075,10.19875 0,14.08949 -3.89074,3.89075 -10.19874,3.89075 -14.08949,0 z" /></g><g
             id="g42"><path
               id="path44"
               style="fill:#0089ff;fill-opacity:1;fill-rule:nonzero;stroke:#ffffff;stroke-width:4.98137999;stroke-linecap:butt;stroke-linejoin:miter;stroke-miterlimit:10;stroke-dasharray:none;stroke-opacity:1"
               d="m 59.88036,-73.96985 c 3.89074,-3.89076 10.19874,-3.89076 14.08949,0 3.89076,3.89075 3.89076,10.19875 0,14.08949 -3.89075,3.89075 -10.19875,3.89075 -14.08949,0 -3.89075,-3.89074 -3.89075,-10.19874 0,-14.08949 z" /></g><g
             id="g46"><path
               id="path48"
               style="fill:#ffffff;fill-opacity:1;fill-rule:nonzero;stroke:#ffffff;stroke-width:0.3985;stroke-linecap:butt;stroke-linejoin:miter;stroke-miterlimit:10;stroke-dasharray:none;stroke-opacity:1"
               d="M 79.70215,0 C 79.70215,44.01884 44.01884,79.70215 0,79.70215 -44.01884,79.70215 -79.70215,44.01884 -79.70215,0 c 0,-44.01884 35.68331,-79.70215 79.70215,-79.70215 44.01884,0 79.70215,35.68331 79.70215,79.70215 z" /></g><g
             id="g50"><path
               id="path52"
               style="fill:#f27900;fill-opacity:1;fill-rule:evenodd;stroke:none"
               d="m 59.52846,0 c 0,4.15833 -0.43692,8.31033 -1.30074,12.37692 l 11.63155,6.0105 c 0.73524,0.37993 1.15787,1.33545 0.94395,2.13425 -1.24782,4.65912 -3.67024,10.53518 -6.06303,14.72493 -0.4095,0.71704 -1.38053,1.09802 -2.16886,0.85096 L 50.0762,32.18124 c -2.24719,3.49797 -4.85959,6.75527 -7.7853,9.70917 l 6.5344,11.34393 c 0.41301,0.71703 0.25054,1.75034 -0.36294,2.30794 -3.56641,3.24137 -8.77785,6.87833 -13.05585,9.10961 -0.73227,0.38192 -1.75595,0.17671 -2.28648,-0.45838 L 24.72646,54.14552 c -3.78229,1.72673 -7.73992,3.05564 -11.79834,3.95851 l -0.63593,13.08078 c -0.04007,0.82471 -0.73323,1.60421 -1.54822,1.74108 C 5.98708,73.72504 -0.36128,73.96684 -5.16727,73.5315 -5.98929,73.45705 -6.7389,72.73238 -6.8416,71.91292 L -8.46994,58.91943 c -4.11565,-0.5913 -8.16321,-1.6141 -12.06538,-3.04835 l -7.60628,10.65838 c -0.48026,0.67296 -1.48644,0.9544 -2.24739,0.62859 -4.43186,-1.89769 -9.90644,-5.12643 -13.70883,-8.08757 -0.65395,-0.50926 -0.8942,-1.5276 -0.53664,-2.27455 l 5.65286,-11.80896 c -3.14192,-2.72227 -5.9941,-5.77156 -8.50108,-9.08787 l -12.15918,4.8538 c -0.76892,0.30693 -1.76848,-6e-5 -2.23256,-0.68573 -2.70219,-3.9924 -5.55983,-9.66939 -7.15935,-14.22151 -0.27371,-0.77901 0.07558,-1.76319 0.78018,-2.19821 l 11.13955,-6.87798 C -58.28487,12.78009 -59.03699,8.67442 -59.35307,4.5288 L -72.20863,2.03639 C -73.01947,1.8792 -73.6926,1.08282 -73.7121,0.25764 c -0.11424,-4.82499 0.5504,-11.14076 1.66443,-15.83369 0.19092,-0.80434 1.01473,-1.44434 1.84003,-1.4295 l 13.0936,0.23608 c 1.17084,-3.9894 2.75954,-7.84983 4.73424,-11.50858 l -9.46451,-9.04332 c -0.59839,-0.57173 -0.73377,-1.60894 -0.30242,-2.31666 2.50841,-4.11553 6.48274,-9.0739 9.95821,-12.41972 0.59538,-0.57322 1.63646,-0.66457 2.3253,-0.20409 l 10.88162,7.27402 c 3.14191,-2.72228 6.56633,-5.11119 10.20601,-7.12043 l -3.07495,-12.72894 c -0.19385,-0.80257 0.25215,-1.74608 0.99622,-2.10745 4.33761,-2.10658 10.3621,-4.12976 15.095,-5.06453 0.81085,-0.1601 1.73556,0.32474 2.06544,1.08293 l 5.22307,12.00549 c 4.11565,-0.5913 8.28581,-0.74937 12.43414,-0.47323 l 4.2936,-12.36878 c 0.27124,-0.78141 1.15619,-1.3354 1.97657,-1.23738 4.79096,0.5726 10.9504,2.13018 15.43754,3.90171 0.76893,0.30355 1.28514,1.21031 1.15296,2.02529 l -2.09669,12.92762 c 3.78229,1.72672 7.37749,3.8486 10.71742,6.3238 l 10.2995,-8.08291 c 0.65079,-0.51076 1.69571,-0.49768 2.33393,0.0292 3.71843,3.06981 8.05941,7.71106 10.87374,11.62296 0.48414,0.67297 0.42746,1.71832 -0.1266,2.33484 l -8.7491,9.73552 c 2.24721,3.49798 4.12567,7.2267 5.59716,11.11526 l 13.03656,-1.23132 c 0.822,-0.07764 1.69264,0.49849 1.94458,1.2868 1.468,4.59261 2.61398,10.84314 2.86647,15.66297 0.04315,0.82432 -0.5678,1.66955 -1.3646,1.8879 L 59.52716,0 M 42.5202,0 C 42.5202,23.48355 23.48355,42.5202 0,42.5202 -23.48355,42.5202 -42.5202,23.48355 -42.5202,0 c 0,-23.48355 19.03665,-42.5202 42.5202,-42.5202 23.48355,0 42.5202,19.03665 42.5202,42.5202 z" /></g></g></g></g></g></svg>